<svg width="95" height="94" viewBox="0 0 95 94" fill="none" xmlns="http://www.w3.org/2000/svg">
<circle cx="47.5" cy="46.631" r="46.631" fill="#23A26D" fill-opacity="0.12"/>
<path d="M46.6671 24.4258C34.4321 24.4258 24.4619 34.3959 24.4619 46.631C24.4619 58.8661 34.4321 68.8362 46.6671 68.8362C58.9022 68.8362 68.8724 58.8661 68.8724 46.631C68.8724 34.3959 58.9022 24.4258 46.6671 24.4258ZM57.2812 41.5238L44.6909 54.1142C44.38 54.425 43.9581 54.6027 43.514 54.6027C43.0699 54.6027 42.648 54.425 42.3371 54.1142L36.053 47.8301C35.4091 47.1861 35.4091 46.1203 36.053 45.4763C36.697 44.8324 37.7628 44.8324 38.4068 45.4763L43.514 50.5835L54.9275 39.1701C55.5714 38.5261 56.6373 38.5261 57.2812 39.1701C57.9252 39.814 57.9252 40.8577 57.2812 41.5238Z" fill="#23A26D"/>
</svg>
